<svg id="Layer_3" enable-background="new 0 0 64 64" height="512" viewBox="0 0 64 64" width="512" xmlns="http://www.w3.org/2000/svg"><g><path d="m47 1v17l-15 6-15-6v-17" fill="#398469"/><g fill="#183e2e"><path d="m41 1v19.4l6-2.4v-17z"/><path d="m23 1v19.4l-6-2.4v-17z"/><path d="m35 1v21.8l-3 1.2-3-1.203v-21.797"/></g><circle cx="32" cy="43" fill="#398469" r="19"/><circle cx="32" cy="43" fill="#60b69c" r="15"/><path d="m27 38 5-13 5 13 13 2-12 6 4 13-10-9-10 9 4-13-12-6z" fill="#d5cec2"/><g><path d="m49.999 13.998h-35.999c-.553 0-1-.447-1-1v-3.999c0-.553.447-1 1-1h3v2h-2v1.999h34v-1.999h-2v-2h3c.553 0 1 .447 1 1v3.999c-.001.553-.448 1-1.001 1z" fill="#e7e4dd"/></g><path d="m34.324 37.451c0-3.907-1.115-7.545-3.016-10.65l-4.308 11.199-13 2 12 6-2.994 9.729c6.704-3.357 11.318-10.27 11.318-18.278z" fill="#e7e4dd"/><path d="m36.115 23.429 11.256-4.502c.38-.151.629-.52.629-.929v-4h2c.553 0 1-.447 1-1v-3.999c0-.553-.447-1-1-1h-2v-7.001l-2 .001v10.999h-4v-10.999h-2v10.999h-4v-10.999h-2v10.999h-4.001v-10.999h-2v10.999h-4v-10.999h-2v10.999h-4v-10.998h-2v6.999h-2c-.553 0-1 .447-1 1v3.999c0 .553.447 1 1 1h2v4c0 .409.249.777.628.929l11.256 4.503c-9.058 1.903-15.883 9.952-15.883 19.569 0 11.027 8.972 19.999 20 19.999s20-8.972 20-19.999c0-9.618-6.825-17.667-15.885-19.57zm13.399 15.483-2.145-.33c-1.776-6.209-7.066-10.708-13.482-11.46l-.795-2.067c8.029.485 14.644 6.241 16.422 13.857zm-8.185 14.508-2.125-6.905 6.788-3.394c-.035 3.94-1.752 7.685-4.663 10.299zm-8.66-4.165c-.38-.342-.957-.34-1.338 0l-7.312 6.581 2.937-9.542c.144-.468-.071-.97-.508-1.188l-9.19-4.597 9.895-1.521c.354-.055.652-.295.781-.63l4.066-10.574 4.066 10.573c.129.335.427.575.781.63l9.896 1.521-9.19 4.597c-.437.219-.652.721-.508 1.188l2.936 9.542zm4.499 6.741c-3.278 1.284-7.059 1.283-10.337 0l5.169-4.652zm-14.498-2.576c-2.911-2.614-4.628-6.358-4.662-10.299l6.788 3.394zm-3.833-15.178c1.664-4.63 5.627-8.027 10.447-8.97l-3.01 7.826zm15.877-8.97c4.826.942 8.784 4.337 10.448 8.97l-7.438-1.144zm13.286-19.273h1v1.999h-1zm-2.001 3.999v3.323l-4 1.6v-4.923zm-5.999 0v5.723l-4 1.6v-7.324h4zm-6 0v8.124l-2 .8-2-.8v-8.124zm-6 0v7.324l-4-1.6v-5.723h4zm-13-2v-1.999h1v1.999zm3 2h4v4.923l-4-1.6zm12.906 11.056-.796 2.069c-6.408.752-11.705 5.255-13.48 11.459l-2.144.33c1.778-7.615 8.392-13.372 16.42-13.858zm-16.906 17.945c0-.62.031-1.232.093-1.836l1.948.974c-.015.288-.042.575-.041.861-.001 4.861 2.242 9.482 6.028 12.508l-.62 2.014c-4.481-3.277-7.408-8.557-7.408-14.521zm9.598 15.906 1.59-1.431c2.117.995 4.456 1.525 6.812 1.525 2.355-.001 4.693-.53 6.81-1.525l1.59 1.431c-2.51 1.331-5.367 2.093-8.401 2.093-3.033 0-5.89-.762-8.401-2.093zm18.993-1.385-.62-2.014c3.785-3.026 6.028-7.646 6.029-12.508 0-.287-.026-.573-.042-.861l1.948-.974c.062.604.094 1.216.094 1.836 0 5.964-2.928 11.244-7.409 14.521z"/></g></svg>